<svg width="62" height="69" viewBox="0 0 62 69" fill="none" xmlns="http://www.w3.org/2000/svg">
<rect x="54" y="26" width="4" height="14" fill="black"/>
<path d="M29.0001 11H33.0001V33C31.0766 33.692 28.7958 36.3921 29.0001 33V11Z" fill="black"/>
<rect x="5" y="17" width="4" height="22" fill="black"/>
<rect x="29" y="41" width="4" height="22" fill="black"/>
<path d="M31.7238 36.8659C29.2076 32.6717 28.6728 30.4925 33.9018 33.5108L54.6313 46.9675L52.4533 50.3226L31.7238 36.8659Z" fill="black"/>
<rect x="7" y="22.3555" width="4" height="22" transform="rotate(-57.0101 7 22.3555)" fill="black"/>
<circle cx="31" cy="6" r="4.75" fill="white" stroke="black" stroke-width="2.5"/>
<rect x="39" y="13.3555" width="4" height="22" transform="rotate(-57.0101 39 13.3555)" fill="black"/>
<rect x="14" y="55.3555" width="4" height="22" transform="rotate(-57.0101 14 55.3555)" fill="black"/>
<rect x="46.2637" y="52" width="4" height="22" transform="rotate(61.1199 46.2637 52)" fill="black"/>
<path d="M29.7034 33.2049C32.0166 27.3422 31.3185 33.3105 31.6353 36.7074L10.9301 48.1279L8.99816 44.6254L29.7034 33.2049Z" fill="black"/>
<rect x="55.7051" y="19" width="4" height="23.646" transform="rotate(61.1199 55.7051 19)" fill="black"/>
<rect x="21.7051" y="10" width="4" height="23.646" transform="rotate(61.1199 21.7051 10)" fill="black"/>
<circle cx="56" cy="49" r="4.75" fill="white" stroke="black" stroke-width="2.5"/>
<circle cx="56" cy="21" r="4.75" fill="white" stroke="black" stroke-width="2.5"/>
<path d="M31.5 36.5L33 35V33H29L31.5 36.5Z" fill="black"/>
<circle cx="7" cy="49" r="4.75" fill="white" stroke="black" stroke-width="2.5"/>
<circle cx="6" cy="21" r="4.75" fill="white" stroke="black" stroke-width="2.5"/>
<circle cx="31" cy="63" r="4.75" fill="white" stroke="black" stroke-width="2.5"/>
</svg>
